<?xml version="1.0" encoding="UTF-8" standalone="no"?>
<!-- Created with Inkscape (http://www.inkscape.org/) -->

<svg
   xmlns:dc="http://purl.org/dc/elements/1.1/"
   xmlns:cc="http://creativecommons.org/ns#"
   xmlns:rdf="http://www.w3.org/1999/02/22-rdf-syntax-ns#"
   xmlns:svg="http://www.w3.org/2000/svg"
   xmlns="http://www.w3.org/2000/svg"
   xmlns:sodipodi="http://sodipodi.sourceforge.net/DTD/sodipodi-0.dtd"
   xmlns:inkscape="http://www.inkscape.org/namespaces/inkscape"
   width="504.61896"
   height="96.898438"
   id="svg2"
   version="1.1"
   inkscape:version="0.91 r13725"
   sodipodi:docname="example.svg">
  <defs
     id="defs4" />
  <sodipodi:namedview
     id="base"
     pagecolor="#ffffff"
     bordercolor="#666666"
     borderopacity="1.0"
     inkscape:pageopacity="0.0"
     inkscape:pageshadow="2"
     inkscape:zoom="1.4446544"
     inkscape:cx="252.30948"
     inkscape:cy="48.44922"
     inkscape:document-units="px"
     inkscape:current-layer="layer1"
     showgrid="false"
     showguides="true"
     inkscape:guide-bbox="true"
     inkscape:window-width="1143"
     inkscape:window-height="1033"
     inkscape:window-x="57"
     inkscape:window-y="27"
     inkscape:window-maximized="0"
     fit-margin-top="0"
     fit-margin-left="0"
     fit-margin-right="0"
     fit-margin-bottom="0">
    <sodipodi:guide
       orientation="0,1"
       position="410.81538,96.898437"
       id="guide4404" />
    <sodipodi:guide
       orientation="0,1"
       position="128.00712,-2.6171875e-06"
       id="guide4412" />
  </sodipodi:namedview>
  <metadata
     id="metadata7">
    <rdf:RDF>
      <cc:Work
         rdf:about="">
        <dc:format>image/svg+xml</dc:format>
        <dc:type
           rdf:resource="http://purl.org/dc/dcmitype/StillImage" />
        <dc:title></dc:title>
      </cc:Work>
    </rdf:RDF>
  </metadata>
  <g
     inkscape:label="Layer 1"
     inkscape:groupmode="layer"
     id="layer1"
     transform="translate(-186.34946,-214.07796)">
    <g
       id="Icons with numbers"
       style="fill:none;stroke:none"
       transform="matrix(7.1265732,0,0,7.1265732,488.88621,194.03608)">
      <g
         transform="translate(-96,-336)"
         id="Group"
         style="fill:#000000">
        <path
           id="Shape"
           d="m 112,344 -6,-5 0,3 c -4.5,0 -8,1 -10,6 3,-2.5 6,-3 10,-2 l 0,3 6,-5 0,0 z m 0,0"
           inkscape:connector-curvature="0" />
      </g>
    </g>
    <g
       id="g3904"
       transform="matrix(1.9379688,0,0,1.9379688,186.34946,214.07796)">
      <circle
         id="circle3892"
         stroke-miterlimit="10"
         r="24"
         cy="25"
         cx="25"
         style="fill:none;stroke:#000000;stroke-width:2;stroke-linecap:round;stroke-miterlimit:10" />
      <rect
         id="rect3894"
         width="50"
         height="50"
         x="0"
         y="0"
         style="fill:none" />
      <path
         id="path3896"
         d="m 29.933,35.528 c -0.146,-1.612 -0.09,-2.737 -0.09,-4.21 0.73,-0.383 2.038,-2.825 2.259,-4.888 0.574,-0.047 1.479,-0.607 1.744,-2.818 0.143,-1.187 -0.425,-1.855 -0.771,-2.065 C 34.009,18.738 35.949,10.048 29.487,9.15 28.822,7.982 27.119,7.391 24.906,7.391 c -8.854,0.163 -9.922,6.686 -7.981,14.156 -0.345,0.21 -0.913,0.878 -0.771,2.065 0.266,2.211 1.17,2.771 1.744,2.818 0.22,2.062 1.58,4.505 2.312,4.888 0,1.473 0.055,2.598 -0.091,4.21 -1.261,3.39 -7.737,3.655 -11.473,6.924 3.906,3.933 10.236,6.746 16.916,6.746 6.68,0 14.532,-5.274 15.839,-6.713 C 37.688,39.186 31.197,38.93 29.933,35.528 Z"
         inkscape:connector-curvature="0" />
    </g>
    <g
       id="g4077"
       transform="translate(396.15771,218.78013)">
      <path
         id="path4039"
         d="m 22.366,30.569 c 1.004,0 1.974,0.152 2.887,0.434 3.448,-3.864 7.271,-7.379 11.411,-10.5 -0.173,-0.731 -0.275,-1.489 -0.275,-2.274 0,-1.084 0.184,-2.125 0.51,-3.1 -4.637,-3.328 -9.682,-6.12 -15.047,-8.279 -5.031,3.109 -9.418,7.162 -12.914,11.912 2.596,4.596 5.682,8.883 9.189,12.784 1.284,-0.62 2.719,-0.977 4.239,-0.977 z m -9.787,9.786 c 0,-1.374 0.287,-2.682 0.798,-3.868 C 10.235,33.039 7.391,29.317 4.898,25.352 1.771,31.562 0,38.572 0,45.999 c 0,8.602 2.366,16.647 6.476,23.533 1.468,-8.277 4.254,-16.096 8.103,-23.268 -1.251,-1.642 -2,-3.685 -2,-5.909 z M 46.176,8.441 c 2.585,0 4.929,1.009 6.678,2.646 C 57.96,8.89 63.338,7.206 68.932,6.129 62.179,2.238 54.353,0 45.999,0 40.305,0 34.854,1.043 29.82,2.936 c 3.996,1.972 7.803,4.276 11.385,6.873 1.458,-0.864 3.154,-1.368 4.971,-1.368 z m 14.636,46.097 c 0.609,-1.268 1.474,-2.389 2.543,-3.281 -2.888,-8.891 -7.465,-17.021 -13.359,-24.016 -1.173,0.498 -2.464,0.774 -3.82,0.774 -2.123,0 -4.082,-0.684 -5.686,-1.832 -3.547,2.696 -6.83,5.719 -9.815,9.018 0.932,1.497 1.479,3.261 1.479,5.154 0,1.023 -0.158,2.007 -0.448,2.933 8.584,5.736 18.463,9.668 29.106,11.25 z m 12.694,13.211 c 0.135,1.853 0.206,3.723 0.206,5.609 0,3.321 -0.212,6.592 -0.612,9.805 7.799,-5.698 13.74,-13.787 16.734,-23.193 -3.547,0.858 -7.188,1.471 -10.902,1.828 -0.873,2.678 -2.866,4.845 -5.426,5.951 z M 58.518,61.116 C 47.164,59.235 36.635,54.903 27.472,48.695 c -1.487,0.912 -3.232,1.449 -5.105,1.449 -0.688,0 -1.358,-0.073 -2.007,-0.208 -4.387,8.317 -7.19,17.593 -7.996,27.428 4.38,4.696 9.724,8.479 15.727,11.019 C 35.543,76.921 45.963,67.44 58.518,61.116 Z m 18.361,-49.21 c -7.371,0.711 -14.412,2.561 -20.967,5.342 0.035,0.323 0.051,0.649 0.051,0.98 0,1.545 -0.368,3.001 -1.005,4.301 6.548,7.688 11.635,16.648 14.846,26.456 3.979,0.071 7.382,2.509 8.845,5.971 4.428,-0.449 8.74,-1.296 12.894,-2.518 C 91.837,50.334 92,48.187 92,45.999 92,32.479 86.166,20.322 76.879,11.906 Z M 63.442,66.345 c -11.72,5.49 -21.519,13.945 -28.616,24.282 3.577,0.893 7.318,1.374 11.173,1.374 6.939,0 13.514,-1.546 19.413,-4.297 0.948,-4.637 1.45,-9.433 1.45,-14.346 0,-1.775 -0.08,-3.532 -0.213,-5.273 -1.182,-0.379 -2.266,-0.973 -3.207,-1.74 z"
         inkscape:connector-curvature="0" />
      <g
         id="g4041" />
      <g
         id="g4043" />
      <g
         id="g4045" />
      <g
         id="g4047" />
      <g
         id="g4049" />
      <g
         id="g4051" />
      <g
         id="g4053" />
      <g
         id="g4055" />
      <g
         id="g4057" />
      <g
         id="g4059" />
      <g
         id="g4061" />
      <g
         id="g4063" />
      <g
         id="g4065" />
      <g
         id="g4067" />
      <g
         id="g4069" />
    </g>
    <path
       id="path4395"
       d="m 686.13841,231.87796 -39.17,-17.8 -39.17,17.81 -4.83,2.19 0,56 40,18.18 4,1.82 4,-1.82 40,-18.18 0,-56 -4.83,-2.2 z m -39.17,-9.01 29.5,13.41 -29.5,13.41 -29.51,-13.41 29.51,-13.41 z m -36,62.06 0,-42.82 32,14.54 0,42.82 -32,-14.54 z m 72,0 -32,14.54 0,-42.82 32,-14.54 0,42.82 z"
       inkscape:connector-curvature="0" />
    <g
       transform="matrix(7.1265732,0,0,7.1265732,281.56861,192.69824)"
       style="fill:none;stroke:none"
       id="g4406">
      <g
         style="fill:#000000"
         id="g4408"
         transform="translate(-96,-336)">
        <path
           inkscape:connector-curvature="0"
           d="m 112,344 -6,-5 0,3 c -4.5,0 -8,1 -10,6 3,-2.5 6,-3 10,-2 l 0,3 6,-5 0,0 z m 0,0"
           id="path4410" />
      </g>
    </g>
  </g>
</svg>
